<svg id="svg" version="1.1" xmlns="http://www.w3.org/2000/svg" xmlns:xlink="http://www.w3.org/1999/xlink" width="50" height="50" viewBox="0, 0, 400,400"><g id="svgg"><path id="path0" d="M276.657 22.733 L 275.333 24.133 276.733 22.810 C 277.503 22.082,278.133 21.452,278.133 21.410 C 278.133 21.211,277.886 21.432,276.657 22.733 M356.133 22.667 C 356.856 23.400,357.507 24.000,357.580 24.000 C 357.653 24.000,357.122 23.400,356.400 22.667 C 355.678 21.933,355.027 21.333,354.953 21.333 C 354.880 21.333,355.411 21.933,356.133 22.667 M276.667 105.867 C 277.389 106.600,278.040 107.200,278.113 107.200 C 278.187 107.200,277.656 106.600,276.933 105.867 C 276.211 105.133,275.560 104.533,275.487 104.533 C 275.413 104.533,275.944 105.133,276.667 105.867 M356.123 105.933 L 354.800 107.333 356.200 106.010 C 356.970 105.282,357.600 104.652,357.600 104.610 C 357.600 104.411,357.353 104.632,356.123 105.933 M313.167 129.980 C 303.183 132.261,297.754 143.662,302.116 153.188 C 308.104 166.264,326.721 165.434,331.485 151.878 C 335.765 139.702,325.310 127.206,313.167 129.980 M276.657 185.400 L 275.333 186.800 276.733 185.477 C 277.503 184.749,278.133 184.119,278.133 184.077 C 278.133 183.878,277.886 184.099,276.657 185.400 M356.133 185.333 C 356.856 186.067,357.507 186.667,357.580 186.667 C 357.653 186.667,357.122 186.067,356.400 185.333 C 355.678 184.600,355.027 184.000,354.953 184.000 C 354.880 184.000,355.411 184.600,356.133 185.333 M45.723 187.267 L 44.400 188.667 45.800 187.343 C 46.570 186.616,47.200 185.986,47.200 185.943 C 47.200 185.744,46.953 185.966,45.723 187.267 M125.200 187.200 C 125.922 187.933,126.573 188.533,126.647 188.533 C 126.720 188.533,126.189 187.933,125.467 187.200 C 124.744 186.467,124.093 185.867,124.020 185.867 C 123.947 185.867,124.478 186.467,125.200 187.200 M140.100 266.513 C 128.544 269.153,123.702 283.300,131.040 292.987 C 138.560 302.916,154.242 300.295,158.419 288.411 C 162.698 276.236,152.244 263.739,140.100 266.513 M253.700 266.513 C 243.716 268.794,238.287 280.196,242.649 289.721 C 248.637 302.797,267.254 301.967,272.019 288.411 C 276.298 276.236,265.844 263.739,253.700 266.513 M276.667 268.533 C 277.389 269.267,278.040 269.867,278.113 269.867 C 278.187 269.867,277.656 269.267,276.933 268.533 C 276.211 267.800,275.560 267.200,275.487 267.200 C 275.413 267.200,275.944 267.800,276.667 268.533 M356.123 268.600 L 354.800 270.000 356.200 268.677 C 356.970 267.949,357.600 267.319,357.600 267.277 C 357.600 267.078,357.353 267.299,356.123 268.600 M45.733 270.400 C 46.456 271.133,47.107 271.733,47.180 271.733 C 47.253 271.733,46.722 271.133,46.000 270.400 C 45.278 269.667,44.627 269.067,44.553 269.067 C 44.480 269.067,45.011 269.667,45.733 270.400 M125.190 270.467 L 123.867 271.867 125.267 270.543 C 126.037 269.816,126.667 269.186,126.667 269.143 C 126.667 268.944,126.420 269.166,125.190 270.467 M160.123 296.067 L 158.800 297.467 160.200 296.143 C 161.501 294.914,161.722 294.667,161.523 294.667 C 161.481 294.667,160.851 295.297,160.123 296.067 M239.600 296.000 C 240.322 296.733,240.973 297.333,241.047 297.333 C 241.120 297.333,240.589 296.733,239.867 296.000 C 239.144 295.267,238.493 294.667,238.420 294.667 C 238.347 294.667,238.878 295.267,239.600 296.000 M165.395 334.667 C 165.395 335.180,165.450 335.390,165.517 335.133 C 165.584 334.877,165.584 334.457,165.517 334.200 C 165.450 333.943,165.395 334.153,165.395 334.667 M234.729 334.667 C 234.729 335.180,234.783 335.390,234.850 335.133 C 234.918 334.877,234.918 334.457,234.850 334.200 C 234.783 333.943,234.729 334.153,234.729 334.667 M165.395 340.267 C 165.395 340.780,165.450 340.990,165.517 340.733 C 165.584 340.477,165.584 340.057,165.517 339.800 C 165.450 339.543,165.395 339.753,165.395 340.267 M234.729 340.267 C 234.729 340.780,234.783 340.990,234.850 340.733 C 234.918 340.477,234.918 340.057,234.850 339.800 C 234.783 339.543,234.729 339.753,234.729 340.267 M160.133 379.200 C 160.856 379.933,161.507 380.533,161.580 380.533 C 161.653 380.533,161.122 379.933,160.400 379.200 C 159.678 378.467,159.027 377.867,158.953 377.867 C 158.880 377.867,159.411 378.467,160.133 379.200 M239.590 379.267 L 238.267 380.667 239.667 379.343 C 240.968 378.114,241.189 377.867,240.990 377.867 C 240.948 377.867,240.318 378.497,239.590 379.267 " stroke="none" fill="#b8e1fb" fill-rule="evenodd"></path><path id="path1" d="M308.391 3.619 C 263.171 9.774,241.234 64.361,269.045 101.527 C 296.484 138.198,353.164 131.290,371.282 89.067 C 390.073 45.276,354.767 -2.693,308.391 3.619 M322.800 6.412 C 364.403 11.161,387.067 59.514,364.540 95.467 C 340.534 133.781,285.067 130.572,265.440 89.733 C 245.810 48.890,278.532 1.358,322.800 6.412 M312.800 23.453 C 284.202 26.484,267.935 57.910,281.474 83.969 C 296.385 112.667,336.873 112.531,351.704 83.733 C 366.550 54.905,344.109 20.134,312.800 23.453 M312.267 127.886 C 301.690 130.653,295.952 142.790,300.319 153.157 C 306.412 167.623,326.922 167.623,333.015 153.157 C 338.887 139.216,326.522 124.155,312.267 127.886 M321.333 130.398 C 332.786 134.244,336.248 149.131,327.718 157.851 C 318.767 167.000,303.589 162.283,300.955 149.532 C 298.423 137.274,309.853 126.543,321.333 130.398 M308.391 166.286 C 263.171 172.441,241.234 227.028,269.045 264.194 C 296.484 300.865,353.164 293.957,371.282 251.733 C 390.073 207.942,354.767 159.973,308.391 166.286 M77.458 168.152 C 35.522 173.860,12.614 221.848,33.826 259.552 C 57.988 302.498,120.874 298.984,140.349 253.600 C 159.140 209.809,123.834 161.840,77.458 168.152 M322.800 169.078 C 364.403 173.828,387.067 222.181,364.540 258.133 C 340.534 296.448,285.067 293.239,265.440 252.400 C 245.810 211.556,278.532 164.025,322.800 169.078 M91.867 170.945 C 130.811 175.391,153.940 218.382,136.693 254.267 C 115.788 297.765,55.412 297.765,34.507 254.267 C 14.877 213.423,47.599 165.891,91.867 170.945 M312.800 186.119 C 284.202 189.151,267.935 220.576,281.474 246.636 C 296.385 275.334,336.873 275.198,351.704 246.400 C 366.550 217.572,344.109 182.801,312.800 186.119 M81.867 187.986 C 53.268 191.018,37.001 222.443,50.541 248.502 C 65.452 277.201,105.940 277.065,120.770 248.267 C 135.617 219.439,113.176 184.667,81.867 187.986 M139.200 264.419 C 125.543 267.993,121.192 285.760,131.517 295.795 C 140.245 304.277,155.152 301.076,159.948 289.690 C 165.820 275.749,153.455 260.688,139.200 264.419 M252.800 264.419 C 242.224 267.187,236.485 279.324,240.852 289.690 C 246.945 304.157,267.455 304.157,273.548 289.690 C 279.420 275.749,267.055 260.688,252.800 264.419 M148.267 266.931 C 159.719 270.778,163.182 285.665,154.652 294.384 C 145.700 303.534,130.522 298.816,127.889 286.066 C 125.357 273.808,136.786 263.076,148.267 266.931 M261.867 266.931 C 273.319 270.778,276.782 285.665,268.252 294.384 C 259.300 303.534,244.122 298.816,241.489 286.066 C 238.957 273.808,250.386 263.076,261.867 266.931 M191.858 276.952 C 146.638 283.107,124.701 337.694,152.511 374.861 C 179.951 411.531,236.630 404.623,254.749 362.400 C 273.540 318.609,238.234 270.640,191.858 276.952 M206.267 279.745 C 245.211 284.191,268.340 327.182,251.093 363.067 C 230.188 406.565,169.812 406.565,148.907 363.067 C 129.277 322.223,161.999 274.691,206.267 279.745 M196.267 296.786 C 167.668 299.818,151.401 331.243,164.941 357.302 C 179.852 386.001,220.340 385.865,235.170 357.067 C 250.017 328.239,227.576 293.467,196.267 296.786 M207.286 303.321 C 229.805 308.420,241.528 332.914,231.179 353.242 C 222.474 370.340,201.644 377.138,184.383 368.515 C 167.363 360.013,160.412 338.732,169.088 321.692 C 176.137 307.847,192.505 299.975,207.286 303.321 " stroke="none" fill="#fbfbfc" fill-rule="evenodd"></path><path id="path2" d="M313.067 6.301 C 266.861 9.586,243.553 64.374,272.738 101.101 C 299.744 135.085,352.999 126.668,369.167 85.860 C 384.655 46.769,354.064 3.387,313.067 6.301 M324.267 23.861 C 350.639 29.695,364.300 58.871,352.114 83.333 C 339.917 107.820,307.912 113.198,288.678 93.992 C 274.330 79.664,272.420 56.608,284.207 40.008 C 293.181 27.370,309.817 20.664,324.267 23.861 M313.067 168.968 C 266.861 172.252,243.553 227.041,272.738 263.767 C 299.744 297.751,352.999 289.334,369.167 248.526 C 384.655 209.435,354.064 166.054,313.067 168.968 M82.133 170.834 C 35.927 174.119,12.620 228.908,41.805 265.634 C 68.811 299.618,122.066 291.201,138.234 250.393 C 153.722 211.302,123.131 167.920,82.133 170.834 M324.267 186.527 C 350.639 192.362,364.300 221.537,352.114 246.000 C 339.917 270.487,307.912 275.864,288.678 256.659 C 274.330 242.331,272.420 219.274,284.207 202.675 C 293.181 190.036,309.817 183.331,324.267 186.527 M93.333 188.394 C 119.705 194.229,133.367 223.404,121.181 247.867 C 108.983 272.354,76.979 277.731,57.745 258.525 C 43.396 244.198,41.486 221.141,53.273 204.541 C 62.247 191.903,78.884 185.197,93.333 188.394 M196.533 279.634 C 150.327 282.919,127.020 337.708,156.205 374.434 C 183.211 408.418,236.466 400.001,252.634 359.193 C 268.122 320.102,237.531 276.720,196.533 279.634 M207.733 297.194 C 234.105 303.029,247.767 332.204,235.581 356.667 C 223.383 381.154,191.379 386.531,172.145 367.325 C 157.796 352.998,155.886 329.941,167.673 313.341 C 176.647 300.703,193.284 293.997,207.733 297.194 " stroke="none" fill="#349cf4" fill-rule="evenodd"></path><path id="path3" d="M196.400 302.959 C 167.398 306.464,155.100 341.416,175.642 361.958 C 195.220 381.536,228.464 371.446,234.162 344.196 C 238.867 321.697,219.186 300.206,196.400 302.959 " stroke="none" fill="#73b3ec" fill-rule="evenodd"></path><path id="path4" d="M313.133 6.317 C 313.390 6.384,313.810 6.384,314.067 6.317 C 314.323 6.250,314.113 6.195,313.600 6.195 C 313.087 6.195,312.877 6.250,313.133 6.317 M319.000 6.317 C 319.257 6.384,319.677 6.384,319.933 6.317 C 320.190 6.250,319.980 6.195,319.467 6.195 C 318.953 6.195,318.743 6.250,319.000 6.317 M288.533 34.800 C 287.886 35.460,287.416 36.000,287.489 36.000 C 287.562 36.000,288.152 35.460,288.800 34.800 C 289.448 34.140,289.918 33.600,289.844 33.600 C 289.771 33.600,289.181 34.140,288.533 34.800 M344.256 34.733 C 345.361 35.911,345.600 36.122,345.600 35.922 C 345.600 35.879,345.030 35.309,344.333 34.656 L 343.067 33.467 344.256 34.733 M259.795 61.067 C 259.795 61.580,259.850 61.790,259.917 61.533 C 259.984 61.277,259.984 60.857,259.917 60.600 C 259.850 60.343,259.795 60.553,259.795 61.067 M373.129 61.067 C 373.129 61.580,373.183 61.790,373.250 61.533 C 373.318 61.277,373.318 60.857,373.250 60.600 C 373.183 60.343,373.129 60.553,373.129 61.067 M259.795 67.467 C 259.795 67.980,259.850 68.190,259.917 67.933 C 259.984 67.677,259.984 67.257,259.917 67.000 C 259.850 66.743,259.795 66.953,259.795 67.467 M373.129 67.467 C 373.129 67.980,373.183 68.190,373.250 67.933 C 373.318 67.677,373.318 67.257,373.250 67.000 C 373.183 66.743,373.129 66.953,373.129 67.467 M288.522 93.933 C 289.627 95.111,289.867 95.322,289.867 95.122 C 289.867 95.079,289.297 94.509,288.600 93.856 L 287.333 92.667 288.522 93.933 M344.267 94.000 C 343.619 94.660,343.149 95.200,343.222 95.200 C 343.296 95.200,343.886 94.660,344.533 94.000 C 345.181 93.340,345.651 92.800,345.578 92.800 C 345.504 92.800,344.914 93.340,344.267 94.000 M313.133 122.317 C 313.390 122.384,313.810 122.384,314.067 122.317 C 314.323 122.250,314.113 122.195,313.600 122.195 C 313.087 122.195,312.877 122.250,313.133 122.317 M319.000 122.317 C 319.257 122.384,319.677 122.384,319.933 122.317 C 320.190 122.250,319.980 122.195,319.467 122.195 C 318.953 122.195,318.743 122.250,319.000 122.317 M313.133 168.984 C 313.390 169.051,313.810 169.051,314.067 168.984 C 314.323 168.917,314.113 168.862,313.600 168.862 C 313.087 168.862,312.877 168.917,313.133 168.984 M319.000 168.984 C 319.257 169.051,319.677 169.051,319.933 168.984 C 320.190 168.917,319.980 168.862,319.467 168.862 C 318.953 168.862,318.743 168.917,319.000 168.984 M82.200 170.850 C 82.457 170.918,82.877 170.918,83.133 170.850 C 83.390 170.783,83.180 170.729,82.667 170.729 C 82.153 170.729,81.943 170.783,82.200 170.850 M88.067 170.850 C 88.323 170.918,88.743 170.918,89.000 170.850 C 89.257 170.783,89.047 170.729,88.533 170.729 C 88.020 170.729,87.810 170.783,88.067 170.850 M288.533 197.467 C 287.886 198.127,287.416 198.667,287.489 198.667 C 287.562 198.667,288.152 198.127,288.800 197.467 C 289.448 196.807,289.918 196.267,289.844 196.267 C 289.771 196.267,289.181 196.807,288.533 197.467 M344.256 197.400 C 345.361 198.577,345.600 198.789,345.600 198.589 C 345.600 198.546,345.030 197.976,344.333 197.322 L 343.067 196.133 344.256 197.400 M57.600 199.333 C 56.952 199.993,56.482 200.533,56.556 200.533 C 56.629 200.533,57.219 199.993,57.867 199.333 C 58.514 198.673,58.984 198.133,58.911 198.133 C 58.838 198.133,58.248 198.673,57.600 199.333 M113.322 199.267 C 114.427 200.444,114.667 200.656,114.667 200.456 C 114.667 200.413,114.097 199.843,113.400 199.189 L 112.133 198.000 113.322 199.267 M259.795 223.733 C 259.795 224.247,259.850 224.457,259.917 224.200 C 259.984 223.943,259.984 223.523,259.917 223.267 C 259.850 223.010,259.795 223.220,259.795 223.733 M373.129 223.733 C 373.129 224.247,373.183 224.457,373.250 224.200 C 373.318 223.943,373.318 223.523,373.250 223.267 C 373.183 223.010,373.129 223.220,373.129 223.733 M28.862 225.600 C 28.862 226.113,28.917 226.323,28.984 226.067 C 29.051 225.810,29.051 225.390,28.984 225.133 C 28.917 224.877,28.862 225.087,28.862 225.600 M142.195 225.600 C 142.195 226.113,142.250 226.323,142.317 226.067 C 142.384 225.810,142.384 225.390,142.317 225.133 C 142.250 224.877,142.195 225.087,142.195 225.600 M259.795 230.133 C 259.795 230.647,259.850 230.857,259.917 230.600 C 259.984 230.343,259.984 229.923,259.917 229.667 C 259.850 229.410,259.795 229.620,259.795 230.133 M373.129 230.133 C 373.129 230.647,373.183 230.857,373.250 230.600 C 373.318 230.343,373.318 229.923,373.250 229.667 C 373.183 229.410,373.129 229.620,373.129 230.133 M28.862 232.000 C 28.862 232.513,28.917 232.723,28.984 232.467 C 29.051 232.210,29.051 231.790,28.984 231.533 C 28.917 231.277,28.862 231.487,28.862 232.000 M142.195 232.000 C 142.195 232.513,142.250 232.723,142.317 232.467 C 142.384 232.210,142.384 231.790,142.317 231.533 C 142.250 231.277,142.195 231.487,142.195 232.000 M288.522 256.600 C 289.627 257.777,289.867 257.989,289.867 257.789 C 289.867 257.746,289.297 257.176,288.600 256.522 L 287.333 255.333 288.522 256.600 M344.267 256.667 C 343.619 257.327,343.149 257.867,343.222 257.867 C 343.296 257.867,343.886 257.327,344.533 256.667 C 345.181 256.007,345.651 255.467,345.578 255.467 C 345.504 255.467,344.914 256.007,344.267 256.667 M57.589 258.467 C 58.694 259.644,58.933 259.856,58.933 259.656 C 58.933 259.613,58.363 259.043,57.667 258.389 L 56.400 257.200 57.589 258.467 M113.333 258.533 C 112.686 259.193,112.216 259.733,112.289 259.733 C 112.362 259.733,112.952 259.193,113.600 258.533 C 114.248 257.873,114.718 257.333,114.644 257.333 C 114.571 257.333,113.981 257.873,113.333 258.533 M196.600 279.650 C 196.857 279.718,197.277 279.718,197.533 279.650 C 197.790 279.583,197.580 279.529,197.067 279.529 C 196.553 279.529,196.343 279.583,196.600 279.650 M202.467 279.650 C 202.723 279.718,203.143 279.718,203.400 279.650 C 203.657 279.583,203.447 279.529,202.933 279.529 C 202.420 279.529,202.210 279.583,202.467 279.650 M313.133 284.984 C 313.390 285.051,313.810 285.051,314.067 284.984 C 314.323 284.917,314.113 284.862,313.600 284.862 C 313.087 284.862,312.877 284.917,313.133 284.984 M319.000 284.984 C 319.257 285.051,319.677 285.051,319.933 284.984 C 320.190 284.917,319.980 284.862,319.467 284.862 C 318.953 284.862,318.743 284.917,319.000 284.984 M82.200 286.850 C 82.457 286.918,82.877 286.918,83.133 286.850 C 83.390 286.783,83.180 286.729,82.667 286.729 C 82.153 286.729,81.943 286.783,82.200 286.850 M88.067 286.850 C 88.323 286.918,88.743 286.918,89.000 286.850 C 89.257 286.783,89.047 286.729,88.533 286.729 C 88.020 286.729,87.810 286.783,88.067 286.850 M172.000 308.133 C 171.352 308.793,170.882 309.333,170.956 309.333 C 171.029 309.333,171.619 308.793,172.267 308.133 C 172.914 307.473,173.384 306.933,173.311 306.933 C 173.238 306.933,172.648 307.473,172.000 308.133 M227.722 308.067 C 228.827 309.244,229.067 309.456,229.067 309.256 C 229.067 309.213,228.497 308.643,227.800 307.989 L 226.533 306.800 227.722 308.067 M143.262 334.400 C 143.262 334.913,143.317 335.123,143.384 334.867 C 143.451 334.610,143.451 334.190,143.384 333.933 C 143.317 333.677,143.262 333.887,143.262 334.400 M256.595 334.400 C 256.595 334.913,256.650 335.123,256.717 334.867 C 256.784 334.610,256.784 334.190,256.717 333.933 C 256.650 333.677,256.595 333.887,256.595 334.400 M143.262 340.800 C 143.262 341.313,143.317 341.523,143.384 341.267 C 143.451 341.010,143.451 340.590,143.384 340.333 C 143.317 340.077,143.262 340.287,143.262 340.800 M256.595 340.800 C 256.595 341.313,256.650 341.523,256.717 341.267 C 256.784 341.010,256.784 340.590,256.717 340.333 C 256.650 340.077,256.595 340.287,256.595 340.800 M171.989 367.267 C 173.094 368.444,173.333 368.656,173.333 368.456 C 173.333 368.413,172.763 367.843,172.067 367.189 L 170.800 366.000 171.989 367.267 M227.733 367.333 C 227.086 367.993,226.616 368.533,226.689 368.533 C 226.762 368.533,227.352 367.993,228.000 367.333 C 228.648 366.673,229.118 366.133,229.044 366.133 C 228.971 366.133,228.381 366.673,227.733 367.333 M196.600 395.650 C 196.857 395.718,197.277 395.718,197.533 395.650 C 197.790 395.583,197.580 395.529,197.067 395.529 C 196.553 395.529,196.343 395.583,196.600 395.650 M202.467 395.650 C 202.723 395.718,203.143 395.718,203.400 395.650 C 203.657 395.583,203.447 395.529,202.933 395.529 C 202.420 395.529,202.210 395.583,202.467 395.650 " stroke="none" fill="#72bcf5" fill-rule="evenodd"></path></g></svg>