<svg id="svg" version="1.1" xmlns="http://www.w3.org/2000/svg" xmlns:xlink="http://www.w3.org/1999/xlink" width="150" height="50" viewBox="0, 0, 400,133.33333333333334"><g id="svgg"><path id="path0" d="M103.324 2.160 C 87.429 4.184,80.919 24.231,92.523 35.421 C 104.686 47.150,124.428 38.421,124.387 21.333 C 124.359 9.820,114.395 0.751,103.324 2.160 M107.004 7.843 C 117.925 9.211,122.710 22.697,115.175 30.872 C 108.802 37.786,97.897 36.164,93.659 27.672 C 89.468 19.272,94.757 9.036,103.905 7.841 C 105.372 7.649,105.455 7.650,107.004 7.843 M101.673 56.679 C 84.023 60.488,81.142 85.153,97.417 93.108 C 111.238 99.864,126.753 87.759,124.150 72.250 C 122.377 61.690,111.944 54.462,101.673 56.679 M26.333 57.020 C 13.381 58.502,5.738 73.144,11.695 85.065 C 18.682 99.046,38.311 99.106,45.329 85.167 C 52.257 71.406,41.386 55.297,26.333 57.020 M108.190 62.240 C 117.916 64.302,122.126 76.479,115.835 84.352 C 108.556 93.461,94.433 89.614,92.399 77.968 C 90.767 68.621,99.106 60.315,108.190 62.240 M32.699 63.282 C 42.236 66.606,44.965 78.901,37.761 86.091 C 29.842 93.995,16.819 89.319,15.317 78.033 C 14.013 68.236,23.591 60.109,32.699 63.282 M63.583 93.437 C 48.472 96.163,42.478 114.879,53.142 126.040 C 64.362 137.784,83.689 130.854,85.509 114.435 C 86.884 102.025,75.645 91.261,63.583 93.437 M70.162 99.342 C 80.529 102.228,83.422 116.194,75.104 123.194 C 68.588 128.679,58.875 126.648,54.911 118.972 C 49.489 108.474,58.999 96.233,70.162 99.342 M65.446 101.019 C 56.997 101.928,52.366 111.642,57.001 118.734 C 62.150 126.612,74.117 125.412,77.485 116.680 C 80.596 108.612,74.049 100.094,65.446 101.019 " stroke="none" fill="#3e9ff2" fill-rule="evenodd"></path><path id="path1" d="M102.294 1.247 C 89.152 3.401,81.694 18.081,87.518 30.333 C 94.515 45.054,114.851 45.773,122.870 31.583 C 126.281 25.547,126.319 17.350,122.963 11.417 C 118.701 3.881,110.585 -0.112,102.294 1.247 M109.186 2.421 C 124.088 5.555,129.576 24.322,118.777 35.218 C 108.122 45.968,90.054 40.320,86.989 25.280 C 84.259 11.884,96.118 -0.328,109.186 2.421 M103.905 7.841 C 94.757 9.036,89.468 19.272,93.659 27.672 C 97.897 36.164,108.802 37.786,115.175 30.872 C 122.710 22.697,117.925 9.211,107.004 7.843 C 105.455 7.650,105.372 7.649,103.905 7.841 M223.917 41.281 C 222.648 41.446,220.520 41.871,219.917 42.080 C 219.550 42.207,218.731 42.471,218.097 42.667 C 212.208 44.483,206.992 49.256,205.076 54.583 C 204.911 55.042,204.724 55.492,204.661 55.583 C 203.834 56.783,202.914 62.645,203.064 65.750 C 203.183 68.193,203.903 71.837,204.579 73.417 C 204.697 73.692,204.960 74.329,205.163 74.833 C 208.240 82.471,216.098 86.917,226.500 86.904 C 230.702 86.899,232.936 86.605,235.917 85.664 C 238.701 84.785,238.900 84.449,238.334 81.582 C 238.135 80.574,237.799 78.850,237.587 77.750 C 237.010 74.758,236.477 74.161,234.833 74.670 C 226.372 77.293,219.222 75.141,217.201 69.364 C 216.458 67.239,216.417 66.961,216.421 64.083 C 216.427 59.295,217.418 56.983,220.549 54.447 C 221.542 53.643,222.019 53.394,223.750 52.779 C 224.936 52.357,230.347 52.245,231.583 52.617 C 235.542 53.806,235.553 53.809,236.167 53.556 C 237.085 53.178,237.004 53.399,238.610 46.876 C 239.466 43.402,239.407 43.324,234.906 42.004 C 232.589 41.324,226.617 40.931,223.917 41.281 M287.417 41.682 C 286.317 41.756,285.042 41.890,284.583 41.980 C 284.125 42.070,283.375 42.190,282.917 42.248 C 280.241 42.581,280.500 40.206,280.501 64.431 C 280.501 87.261,280.424 85.726,281.594 86.171 C 282.403 86.478,291.790 86.378,292.335 86.056 C 293.157 85.570,293.167 85.474,293.167 77.551 L 293.167 70.117 294.652 70.214 C 297.648 70.408,298.266 71.209,299.651 76.696 C 301.406 83.652,302.287 85.949,303.299 86.207 C 304.461 86.503,314.122 86.283,314.453 85.953 C 315.138 85.269,315.151 84.724,314.529 82.840 C 313.970 81.145,313.240 78.545,312.094 74.167 C 311.070 70.255,309.916 67.592,308.592 66.083 C 308.002 65.412,307.882 65.167,308.141 65.167 C 308.218 65.167,308.724 64.780,309.266 64.307 C 312.212 61.732,313.651 58.253,313.452 54.179 C 312.968 44.244,305.144 40.489,287.417 41.682 M151.833 41.775 C 150.317 42.275,150.427 41.108,150.333 57.667 L 150.250 72.417 149.864 73.250 C 148.679 75.810,146.036 76.418,141.559 75.162 C 139.764 74.658,139.335 75.454,138.688 80.500 C 138.116 84.954,138.147 85.208,139.337 85.777 C 142.232 87.162,151.008 87.305,153.469 86.008 C 153.624 85.927,154.177 85.697,154.699 85.498 C 157.898 84.277,160.251 81.907,161.421 78.728 C 161.653 78.099,161.913 77.433,161.999 77.250 C 162.236 76.744,162.620 75.081,162.864 73.500 C 163.187 71.411,163.183 43.487,162.860 42.720 C 162.451 41.752,161.934 41.665,156.705 41.680 C 154.163 41.687,151.971 41.730,151.833 41.775 M171.333 41.775 C 169.701 42.313,169.833 40.356,169.833 64.000 C 169.833 86.578,169.788 85.433,170.703 86.073 C 171.131 86.373,197.768 86.477,198.543 86.182 C 199.518 85.811,199.583 85.478,199.583 80.833 C 199.583 74.649,200.444 75.167,190.163 75.167 L 182.667 75.167 182.667 72.083 L 182.667 69.000 189.330 69.000 C 198.503 69.000,197.833 69.440,197.833 63.417 C 197.833 57.394,198.500 57.833,189.361 57.833 L 182.667 57.833 182.667 55.333 L 182.667 52.833 189.981 52.833 C 199.575 52.833,198.652 53.411,198.661 47.400 C 198.667 42.640,198.618 42.369,197.662 41.955 C 197.019 41.676,172.149 41.506,171.333 41.775 M243.000 41.775 C 241.539 42.257,241.500 42.399,241.500 47.300 C 241.500 53.445,241.013 53.000,247.734 53.000 L 252.500 53.000 252.500 68.840 C 252.500 86.450,252.455 85.738,253.601 86.173 C 254.239 86.416,263.880 86.381,264.421 86.134 C 265.370 85.702,265.333 86.397,265.333 69.008 L 265.333 53.000 270.292 52.998 C 277.098 52.994,276.583 53.451,276.583 47.417 C 276.583 42.637,276.525 42.346,275.481 41.929 C 274.843 41.673,243.755 41.527,243.000 41.775 M320.667 41.775 C 319.035 42.313,319.167 40.356,319.167 64.000 C 319.167 86.578,319.122 85.433,320.036 86.073 C 320.464 86.373,347.101 86.477,347.877 86.182 C 348.852 85.811,348.917 85.478,348.917 80.833 C 348.917 74.649,349.777 75.167,339.497 75.167 L 332.000 75.167 332.000 72.083 L 332.000 69.000 338.663 69.000 C 347.836 69.000,347.167 69.440,347.167 63.417 C 347.167 57.394,347.833 57.833,338.694 57.833 L 332.000 57.833 332.000 55.333 L 332.000 52.833 339.314 52.833 C 348.909 52.833,347.986 53.411,347.994 47.400 C 348.001 42.640,347.951 42.369,346.996 41.955 C 346.352 41.676,321.483 41.506,320.667 41.775 M355.303 41.936 C 354.291 42.360,354.333 41.392,354.333 64.116 C 354.333 86.950,354.285 85.800,355.269 86.174 C 356.029 86.463,382.590 86.382,383.157 86.088 C 383.914 85.697,384.000 85.149,384.000 80.733 C 384.000 74.652,384.873 75.167,374.570 75.167 L 367.000 75.167 367.000 72.083 L 367.000 69.000 373.794 69.000 C 382.964 69.000,382.333 69.412,382.333 63.417 C 382.333 57.432,382.977 57.852,373.792 57.841 L 367.000 57.833 367.000 55.333 L 367.000 52.833 374.342 52.833 C 384.002 52.833,383.167 53.359,383.167 47.280 C 383.167 43.089,383.082 42.541,382.363 42.053 C 381.726 41.621,356.318 41.512,355.303 41.936 M103.483 42.735 C 97.069 45.194,99.037 54.938,105.886 54.638 C 112.050 54.369,113.693 45.873,108.142 42.979 C 107.234 42.506,104.459 42.361,103.483 42.735 M231.356 43.076 C 234.670 43.517,237.636 44.405,237.447 44.898 C 237.398 45.024,236.967 46.674,236.489 48.564 C 236.010 50.454,235.542 52.000,235.447 52.000 C 235.352 52.000,234.738 51.815,234.081 51.588 C 226.638 49.019,218.853 51.436,216.119 57.167 C 214.153 61.285,214.150 66.951,216.112 71.000 C 218.900 76.756,226.454 79.017,234.517 76.508 C 235.243 76.282,235.541 76.249,235.592 76.389 C 235.761 76.852,236.957 83.428,236.892 83.537 C 236.212 84.667,226.134 85.689,222.167 85.029 C 209.978 83.002,203.400 73.890,204.993 61.239 C 206.558 48.802,217.539 41.236,231.356 43.076 M300.333 43.504 C 305.868 44.321,309.612 46.762,311.004 50.461 C 313.156 56.176,311.099 61.711,305.753 64.598 L 304.492 65.279 305.204 65.598 C 306.416 66.140,307.862 67.748,308.731 69.521 C 309.492 71.073,309.923 72.462,311.753 79.244 C 312.271 81.166,312.839 83.116,313.014 83.578 C 313.190 84.039,313.333 84.474,313.333 84.544 C 313.333 84.614,311.182 84.652,308.552 84.628 L 303.770 84.583 303.382 83.616 C 302.885 82.381,302.227 80.091,301.192 76.000 C 299.572 69.591,298.659 68.649,293.958 68.531 L 291.500 68.469 291.500 76.568 L 291.500 84.667 286.833 84.667 L 282.167 84.667 282.167 64.353 L 282.167 44.038 283.458 43.856 C 284.671 43.685,287.826 43.404,290.083 43.267 C 291.949 43.154,299.077 43.318,300.333 43.504 M161.498 56.292 C 161.494 74.835,161.240 76.859,158.446 80.619 C 155.424 84.685,148.453 86.327,141.320 84.654 L 139.891 84.319 140.098 82.868 C 140.212 82.070,140.440 80.385,140.606 79.125 C 140.806 77.599,140.974 76.833,141.110 76.833 C 141.221 76.833,141.824 76.955,142.448 77.104 C 145.389 77.806,148.571 77.390,149.944 76.123 C 151.993 74.235,152.000 74.171,152.000 57.424 L 152.000 43.500 156.750 43.500 L 161.500 43.500 161.498 56.292 M197.000 47.333 L 197.000 51.167 189.000 51.167 L 181.000 51.167 181.000 55.417 L 181.000 59.667 188.583 59.667 L 196.167 59.667 196.167 63.417 L 196.167 67.167 188.583 67.167 L 181.000 67.167 181.000 72.083 L 181.000 77.000 189.417 77.000 L 197.833 77.000 197.833 80.833 L 197.833 84.667 184.667 84.667 L 171.500 84.667 171.500 64.083 L 171.500 43.500 184.250 43.500 L 197.000 43.500 197.000 47.333 M275.000 47.417 L 275.000 51.333 269.333 51.333 L 263.667 51.333 263.667 68.000 L 263.667 84.667 259.000 84.667 L 254.333 84.667 254.333 68.000 L 254.333 51.333 248.750 51.333 L 243.167 51.333 243.167 47.417 L 243.167 43.500 259.083 43.500 L 275.000 43.500 275.000 47.417 M346.333 47.333 L 346.333 51.167 338.333 51.167 L 330.333 51.167 330.333 55.417 L 330.333 59.667 337.917 59.667 L 345.500 59.667 345.500 63.417 L 345.500 67.167 337.917 67.167 L 330.333 67.167 330.333 72.083 L 330.333 77.000 338.750 77.000 L 347.167 77.000 347.167 80.833 L 347.167 84.667 334.000 84.667 L 320.833 84.667 320.833 64.083 L 320.833 43.500 333.583 43.500 L 346.333 43.500 346.333 47.333 M381.500 47.333 L 381.500 51.167 373.414 51.167 L 365.328 51.167 365.372 55.375 L 365.417 59.583 372.958 59.627 L 380.500 59.670 380.500 63.418 L 380.500 67.167 372.917 67.167 L 365.333 67.167 365.333 72.083 L 365.333 77.000 373.833 77.000 L 382.333 77.000 382.333 80.833 L 382.333 84.667 369.167 84.667 L 356.000 84.667 356.000 64.083 L 356.000 43.500 368.750 43.500 L 381.500 43.500 381.500 47.333 M292.333 50.307 L 291.583 50.417 291.539 56.060 L 291.496 61.704 294.456 61.621 C 300.054 61.465,302.500 59.712,302.500 55.857 C 302.500 51.522,298.596 49.391,292.333 50.307 M298.278 52.206 C 301.414 53.315,301.803 57.179,298.967 59.055 C 297.994 59.699,296.515 60.000,294.321 60.000 L 293.167 60.000 293.167 56.012 C 293.167 52.359,293.191 52.017,293.458 51.937 C 294.039 51.764,297.588 51.962,298.278 52.206 M102.917 55.361 C 91.399 57.507,84.155 67.206,85.676 78.446 C 85.864 79.832,85.878 79.887,86.649 82.333 C 90.648 95.020,106.293 100.156,117.083 92.326 C 128.732 83.872,128.132 65.770,115.953 58.192 C 112.179 55.843,106.707 54.655,102.917 55.361 M25.333 56.077 C 9.134 58.740,2.852 79.349,14.682 91.018 C 15.749 92.071,19.020 94.500,19.371 94.500 C 19.426 94.500,20.025 94.760,20.702 95.077 C 23.681 96.472,27.919 96.993,31.667 96.425 C 35.614 95.826,38.886 94.227,42.017 91.367 L 42.801 90.652 42.370 91.701 C 40.253 96.856,45.498 102.050,50.417 99.670 C 50.875 99.448,51.320 99.234,51.406 99.193 C 51.492 99.152,51.301 99.448,50.982 99.851 C 40.540 113.030,49.970 132.901,66.667 132.901 C 89.639 132.901,94.244 99.843,72.241 92.892 L 70.250 92.263 66.667 92.263 L 63.083 92.263 61.093 92.892 C 58.089 93.841,55.968 95.020,53.583 97.069 C 52.942 97.620,52.545 97.921,52.702 97.738 C 53.803 96.453,54.146 93.296,53.369 91.599 C 51.819 88.208,47.437 86.846,44.627 88.881 L 43.936 89.382 44.524 88.566 C 48.476 83.080,49.742 74.390,47.338 69.250 C 47.252 69.067,46.984 68.429,46.743 67.833 C 43.462 59.732,34.163 54.625,25.333 56.077 M110.246 56.895 C 123.292 60.335,128.752 76.563,120.525 87.445 C 111.494 99.389,92.945 96.592,87.825 82.514 C 82.495 67.864,95.499 53.006,110.246 56.895 M30.504 57.007 C 47.453 59.085,53.537 80.845,40.162 91.547 C 27.809 101.431,9.663 92.340,9.667 76.270 C 9.670 64.775,19.529 55.661,30.504 57.007 M102.702 62.263 C 92.508 64.496,88.715 77.648,96.059 85.299 C 102.452 91.958,113.166 90.289,117.342 81.983 C 122.472 71.779,113.631 59.869,102.702 62.263 M25.337 63.001 C 13.888 66.092,11.554 81.447,21.539 87.988 C 29.978 93.515,41.280 87.380,41.781 77.000 C 42.223 67.832,33.849 60.703,25.337 63.001 M83.583 88.292 C 77.253 91.061,79.211 100.455,86.053 100.134 C 92.247 99.843,93.884 91.385,88.308 88.479 C 87.314 87.961,84.586 87.853,83.583 88.292 M69.679 93.432 C 82.213 95.546,89.252 109.391,83.672 120.956 C 76.631 135.551,56.622 135.524,49.641 120.911 C 42.982 106.971,54.698 90.904,69.679 93.432 M64.746 98.987 C 55.651 100.447,50.622 110.667,54.911 118.972 C 59.987 128.799,73.591 128.684,78.556 118.772 C 83.419 109.064,75.212 97.306,64.746 98.987 M70.000 101.448 C 76.421 103.275,79.914 110.382,77.485 116.680 C 74.592 124.181,64.857 126.466,58.973 121.026 C 49.976 112.706,58.208 98.092,70.000 101.448 " stroke="none" fill="#f7f9fb" fill-rule="evenodd"></path><path id="path2" d="M224.856 43.001 C 212.353 44.087,204.322 53.202,204.887 65.667 C 205.357 76.041,211.215 82.920,221.167 84.782 C 225.643 85.620,236.291 84.674,236.781 83.395 C 236.855 83.203,235.613 76.557,235.478 76.423 C 235.444 76.389,234.583 76.576,233.564 76.839 C 222.354 79.726,214.614 74.516,214.614 64.083 C 214.614 53.230,223.586 47.735,234.784 51.730 C 235.426 51.959,235.491 51.956,235.569 51.698 C 236.555 48.430,237.340 44.751,237.090 44.568 C 235.674 43.532,228.829 42.655,224.856 43.001 M290.083 43.360 C 288.342 43.439,285.904 43.634,284.667 43.793 L 282.417 44.083 282.374 64.375 L 282.332 84.667 286.916 84.667 L 291.500 84.667 291.500 76.500 L 291.500 68.333 292.958 68.337 C 298.528 68.349,299.580 69.351,301.360 76.333 C 302.341 80.179,303.039 82.589,303.521 83.792 L 303.872 84.667 308.577 84.667 L 313.281 84.667 312.484 82.042 C 312.046 80.598,311.304 77.954,310.836 76.167 C 309.093 69.515,307.881 67.209,305.385 65.801 C 304.300 65.188,304.299 65.173,305.378 64.704 C 309.244 63.024,311.660 59.256,311.665 54.902 C 311.672 47.685,307.050 43.931,297.417 43.331 C 294.640 43.158,294.552 43.158,290.083 43.360 M152.127 57.792 C 152.065 74.229,152.100 73.880,150.321 75.905 C 148.886 77.539,144.206 78.066,141.309 76.919 C 141.079 76.828,141.004 76.997,140.851 77.947 C 140.522 79.980,139.996 84.219,140.064 84.286 C 140.344 84.567,143.632 85.028,145.917 85.107 C 154.679 85.412,159.405 82.060,160.945 74.449 C 161.187 73.254,161.230 71.240,161.286 58.292 L 161.350 43.500 156.765 43.500 L 152.181 43.500 152.127 57.792 M171.667 64.083 L 171.667 84.667 184.750 84.667 L 197.833 84.667 197.833 80.833 L 197.833 77.000 189.333 77.000 L 180.833 77.000 180.833 72.083 L 180.833 67.167 188.417 67.167 L 196.000 67.167 196.000 63.417 L 196.000 59.667 188.417 59.667 L 180.833 59.667 180.833 55.417 L 180.833 51.167 188.917 51.167 L 197.000 51.167 197.000 47.333 L 197.000 43.500 184.333 43.500 L 171.667 43.500 171.667 64.083 M243.333 47.417 L 243.333 51.333 248.833 51.333 L 254.333 51.333 254.333 68.000 L 254.333 84.667 259.000 84.667 L 263.667 84.667 263.667 68.000 L 263.667 51.333 269.250 51.333 L 274.833 51.333 274.833 47.417 L 274.833 43.500 259.083 43.500 L 243.333 43.500 243.333 47.417 M321.000 64.083 L 321.000 84.667 334.083 84.667 L 347.167 84.667 347.167 80.833 L 347.167 77.000 338.667 77.000 L 330.167 77.000 330.167 72.083 L 330.167 67.167 337.750 67.167 L 345.333 67.167 345.333 63.417 L 345.333 59.667 337.750 59.667 L 330.167 59.667 330.167 55.417 L 330.167 51.167 338.250 51.167 L 346.333 51.167 346.333 47.333 L 346.333 43.500 333.667 43.500 L 321.000 43.500 321.000 64.083 M356.000 64.083 L 356.000 84.667 369.083 84.667 L 382.167 84.667 382.167 80.833 L 382.167 77.000 373.750 77.000 L 365.333 77.000 365.333 72.083 L 365.333 67.167 372.917 67.167 L 380.500 67.167 380.500 63.417 L 380.500 59.667 372.917 59.667 L 365.333 59.667 365.333 55.417 L 365.333 51.167 373.333 51.167 L 381.333 51.167 381.333 47.333 L 381.333 43.500 368.667 43.500 L 356.000 43.500 356.000 64.083 M296.974 50.173 C 300.726 50.644,302.589 52.498,302.578 55.750 C 302.565 59.837,299.979 61.667,294.215 61.667 L 291.500 61.667 291.500 56.010 L 291.500 50.354 292.208 50.259 C 292.598 50.207,293.329 50.141,293.833 50.113 C 294.337 50.085,294.939 50.048,295.171 50.031 C 295.403 50.014,296.214 50.078,296.974 50.173 " stroke="none" fill="#040404" fill-rule="evenodd"></path><path id="path3" d="M292.375 43.282 C 292.535 43.323,292.798 43.323,292.958 43.282 C 293.119 43.240,292.987 43.205,292.667 43.205 C 292.346 43.205,292.215 43.240,292.375 43.282 M171.581 64.083 C 171.581 75.450,171.601 80.075,171.625 74.362 C 171.649 68.649,171.649 59.349,171.625 53.695 C 171.601 48.042,171.581 52.717,171.581 64.083 M243.239 47.417 C 243.239 49.617,243.262 50.494,243.291 49.365 C 243.320 48.237,243.320 46.437,243.291 45.365 C 243.262 44.294,243.238 45.217,243.239 47.417 M320.914 64.083 C 320.914 75.450,320.934 80.075,320.958 74.362 C 320.983 68.649,320.983 59.349,320.958 53.695 C 320.934 48.042,320.914 52.717,320.914 64.083 M381.405 47.333 C 381.405 49.487,381.429 50.369,381.458 49.292 C 381.487 48.215,381.487 46.452,381.458 45.375 C 381.429 44.298,381.405 45.179,381.405 47.333 M295.044 50.120 C 295.297 50.158,295.672 50.157,295.877 50.117 C 296.082 50.078,295.875 50.046,295.417 50.048 C 294.958 50.049,294.791 50.081,295.044 50.120 M228.875 50.615 C 229.035 50.657,229.298 50.657,229.458 50.615 C 229.619 50.573,229.487 50.539,229.167 50.539 C 228.846 50.539,228.715 50.573,228.875 50.615 M311.721 54.917 C 311.722 55.558,311.752 55.800,311.788 55.455 C 311.824 55.109,311.824 54.584,311.787 54.288 C 311.750 53.992,311.721 54.275,311.721 54.917 M302.552 55.750 C 302.553 56.300,302.584 56.505,302.621 56.205 C 302.658 55.906,302.657 55.456,302.619 55.205 C 302.581 54.955,302.551 55.200,302.552 55.750 M214.561 64.083 C 214.561 65.000,214.589 65.354,214.623 64.869 C 214.657 64.385,214.656 63.635,214.622 63.203 C 214.588 62.770,214.560 63.167,214.561 64.083 M292.292 68.456 C 292.773 68.490,293.560 68.490,294.042 68.456 C 294.523 68.423,294.129 68.395,293.167 68.395 C 292.204 68.395,291.810 68.423,292.292 68.456 M382.238 80.833 C 382.238 82.987,382.262 83.869,382.291 82.792 C 382.320 81.715,382.320 79.952,382.291 78.875 C 382.262 77.798,382.238 78.679,382.238 80.833 M227.377 77.620 C 227.631 77.658,228.006 77.657,228.211 77.617 C 228.416 77.578,228.208 77.546,227.750 77.548 C 227.292 77.549,227.124 77.581,227.377 77.620 M225.958 85.284 C 226.165 85.324,226.502 85.324,226.708 85.284 C 226.915 85.245,226.746 85.212,226.333 85.212 C 225.921 85.212,225.752 85.245,225.958 85.284 " stroke="none" fill="#6a6a6a" fill-rule="evenodd"></path><path id="path4" d="M291.294 43.285 C 291.501 43.324,291.801 43.323,291.960 43.281 C 292.120 43.239,291.950 43.207,291.583 43.209 C 291.217 43.211,291.086 43.245,291.294 43.285 M152.079 56.917 C 152.079 64.342,152.100 67.404,152.125 63.721 C 152.150 60.038,152.150 53.963,152.125 50.221 C 152.100 46.479,152.079 49.492,152.079 56.917 M161.413 56.750 C 161.413 64.083,161.433 67.059,161.458 63.363 C 161.483 59.666,161.483 53.666,161.458 50.029 C 161.433 46.392,161.413 49.417,161.413 56.750 M274.905 47.417 C 274.905 49.617,274.929 50.494,274.958 49.365 C 274.987 48.237,274.987 46.437,274.958 45.365 C 274.929 44.294,274.905 45.217,274.905 47.417 M282.247 64.333 C 282.247 75.563,282.267 80.156,282.292 74.542 C 282.316 68.927,282.316 59.740,282.292 54.125 C 282.267 48.510,282.247 53.104,282.247 64.333 M308.833 47.250 C 309.144 47.571,309.436 47.833,309.482 47.833 C 309.528 47.833,309.311 47.571,309.000 47.250 C 308.689 46.929,308.397 46.667,308.351 46.667 C 308.305 46.667,308.522 46.929,308.833 47.250 M227.295 50.621 C 227.594 50.658,228.044 50.657,228.295 50.619 C 228.545 50.581,228.300 50.551,227.750 50.552 C 227.200 50.553,226.995 50.584,227.295 50.621 M180.906 55.417 C 180.906 57.800,180.929 58.752,180.958 57.532 C 180.986 56.312,180.986 54.362,180.958 53.198 C 180.929 52.035,180.906 53.033,180.906 55.417 M330.239 55.417 C 330.239 57.800,330.263 58.752,330.291 57.532 C 330.320 56.312,330.320 54.362,330.291 53.198 C 330.263 52.035,330.239 53.033,330.239 55.417 M300.667 51.552 C 300.667 51.581,300.910 51.825,301.208 52.094 L 301.750 52.583 301.260 52.042 C 300.804 51.537,300.667 51.423,300.667 51.552 M218.158 54.125 L 217.583 54.750 218.208 54.176 C 218.552 53.860,218.833 53.578,218.833 53.551 C 218.833 53.423,218.692 53.543,218.158 54.125 M196.071 63.417 C 196.072 65.525,196.095 66.365,196.125 65.282 C 196.154 64.200,196.154 62.475,196.124 61.449 C 196.095 60.423,196.071 61.308,196.071 63.417 M345.405 63.417 C 345.405 65.525,345.429 66.365,345.458 65.282 C 345.487 64.200,345.487 62.475,345.458 61.449 C 345.428 60.423,345.405 61.308,345.405 63.417 M180.907 72.083 C 180.907 74.833,180.930 75.982,180.958 74.635 C 180.986 73.289,180.986 71.039,180.958 69.635 C 180.930 68.232,180.907 69.333,180.907 72.083 M330.241 72.083 C 330.240 74.833,330.263 75.982,330.291 74.635 C 330.319 73.289,330.319 71.039,330.291 69.635 C 330.263 68.232,330.241 69.333,330.241 72.083 M217.667 73.552 C 217.667 73.581,217.910 73.825,218.208 74.094 L 218.750 74.583 218.260 74.042 C 217.804 73.537,217.667 73.423,217.667 73.552 M145.794 85.285 C 146.001 85.324,146.301 85.323,146.460 85.281 C 146.620 85.239,146.450 85.207,146.083 85.209 C 145.717 85.211,145.586 85.245,145.794 85.285 M147.125 85.284 C 147.331 85.324,147.669 85.324,147.875 85.284 C 148.081 85.245,147.912 85.212,147.500 85.212 C 147.087 85.212,146.919 85.245,147.125 85.284 M224.875 85.282 C 225.035 85.323,225.298 85.323,225.458 85.282 C 225.619 85.240,225.487 85.205,225.167 85.205 C 224.846 85.205,224.715 85.240,224.875 85.282 M227.292 85.284 C 227.498 85.324,227.835 85.324,228.042 85.284 C 228.248 85.245,228.079 85.212,227.667 85.212 C 227.254 85.212,227.085 85.245,227.292 85.284 " stroke="none" fill="#9c9c9c" fill-rule="evenodd"></path></g></svg>